<?xml version="1.0" encoding="UTF-8" standalone="no"?>
<svg
   width="16"
   height="16"
   version="1.1"
   id="svg1"
   xmlns="http://www.w3.org/2000/svg"
   xmlns:svg="http://www.w3.org/2000/svg">
  <defs
     id="defs1" />
  <path
     style="fill:#ffffff"
     d="M 11.072,1 C 10.817,1 10.561,1.0971 10.365,1.293 L 6.3281,5.3281 10.672,9.6719 14.707,5.6348 c 0.392,-0.3918 0.392,-1.0224 0,-1.4141 L 11.779,1.293 C 11.583,1.0971 11.328,1 11.072,1 Z M 5.3281,6.3281 3.293,8.3652 c -0.3918,0.3918 -0.3918,1.0224 0,1.4141 l 2.9277,2.9277 c 0.3917,0.392 1.0223,0.392 1.4141,0 L 9.6719,10.672 Z M 9,14 h 6 v 1 H 8 c 0,0 0,-1 1,-1 z m -8,0 h 3 c 1,0 1,1 1,1 H 1 Z"
     id="path1" />
</svg>
