<?xml version="1.0" encoding="UTF-8" standalone="no"?>
<svg
   width="64"
   height="64"
   version="1.1"
   id="svg5"
   sodipodi:docname="favicon.svg"
   inkscape:version="1.3.2 (091e20ef0f, 2023-11-25, custom)"
   inkscape:export-filename="favicon.svg"
   inkscape:export-xdpi="96"
   inkscape:export-ydpi="96"
   xmlns:inkscape="http://www.inkscape.org/namespaces/inkscape"
   xmlns:sodipodi="http://sodipodi.sourceforge.net/DTD/sodipodi-0.dtd"
   xmlns="http://www.w3.org/2000/svg"
   xmlns:svg="http://www.w3.org/2000/svg">
  <defs
     id="defs5" />
  <sodipodi:namedview
     id="namedview5"
     pagecolor="#505050"
     bordercolor="#eeeeee"
     borderopacity="1"
     inkscape:showpageshadow="0"
     inkscape:pageopacity="0"
     inkscape:pagecheckerboard="0"
     inkscape:deskcolor="#505050"
     inkscape:zoom="12.703125"
     inkscape:cx="29.756458"
     inkscape:cy="24.206642"
     inkscape:window-width="1920"
     inkscape:window-height="1010"
     inkscape:window-x="0"
     inkscape:window-y="0"
     inkscape:window-maximized="1"
     inkscape:current-layer="svg5" />
  <path
     style="font-size:48px;font-family:Jomhuria;-inkscape-font-specification:Jomhuria;opacity:0.952522;fill:#00ffff;fill-opacity:0;stroke-width:2.07486;stroke-linejoin:round;paint-order:markers stroke fill"
     d="m 13.437894,36.758035 2.447872,-8.159574 2.284681,8.159574 H 25.25762 L 31.225766,16.941926 H 26.236769 L 23.089504,29.57761 20.711571,16.941926 h -8.066322 l 1.095715,3.963221 -2.12149,8.672463 L 8.798592,16.941926 H 0.38257395 L 6.327407,36.758035 Z m 26.600153,0 v -13.59152 q 0.04663,-0.04663 0.163191,-0.139878 0.139879,-0.116569 0.186504,-0.163192 0.06994,-0.04663 0.186505,-0.139878 0.139879,-0.116569 0.209818,-0.163192 0.06994,-0.04663 0.186505,-0.116569 0.116569,-0.09325 0.209817,-0.116569 0.09325,-0.04663 0.209818,-0.09325 0.139878,-0.06994 0.233131,-0.09325 0.116569,-0.02331 0.23313,-0.04663 0.139879,-0.02331 0.279757,-0.02331 1.934985,0 1.865045,2.191428 v 12.495806 h 7.693314 V 25.614388 q 0,-1.305531 -0.06994,-2.424559 1.165653,-1.119027 1.841732,-1.119027 1.002462,0 1.492036,0.582827 0.489575,0.582826 0.489575,1.608601 v 12.495806 h 7.576748 V 24.938309 q 0,-3.310456 -0.559513,-5.128875 -0.559515,-1.818419 -1.795108,-2.564438 -1.212278,-0.769331 -3.403707,-0.769331 -1.981612,0 -3.63684,1.21228 -1.631914,1.188966 -2.424559,2.564438 -0.512887,-2.004925 -1.74848,-2.890822 -1.235593,-0.885896 -3.5669,-0.885896 -0.90921,0 -1.841732,0.373009 -0.90921,0.349696 -1.561976,0.792644 -0.629453,0.442949 -1.235592,1.025776 -0.60614,0.582826 -0.839271,0.862583 -0.209818,0.256444 -0.326384,0.419636 v -3.007386 h -3.96322 l -5.01231,1.37547 v 2.494499 l 1.398784,0.862584 v 15.083556 z"
     id="text5"
     aria-label="wm" />
  <path
     style="opacity:0.2;stroke-width:1.11825"
     d="m 32.078829,32.576298 c -1.928509,-3.17e-4 -3.857116,0.385356 -5.284252,1.15381 L 5.1421675,45.38712 c -2.8542727,1.536904 -2.8516213,4.153786 0.00264,5.690695 L 26.794554,62.734826 c 2.854272,1.536905 7.714236,1.536905 10.568504,0 L 59.012817,51.077815 c 2.854266,-1.536901 2.851577,-4.153796 -0.0027,-5.690695 L 37.363141,33.730108 C 35.936005,32.961654 34.0074,32.57661 32.078892,32.576298 Z"
     id="path1" />
  <path
     style="fill:#ea6e41;stroke-width:1.11825"
     d="m 32.078829,31.458041 c -1.928509,-3.17e-4 -3.857116,0.385356 -5.284252,1.153812 L 5.1421675,44.268863 c -2.8542727,1.536904 -2.8516213,4.153788 0.00264,5.690696 L 26.794554,61.61657 c 2.854272,1.536904 7.714236,1.536904 10.568504,0 L 59.012814,49.959559 c 2.854266,-1.536902 2.851577,-4.153797 -0.0027,-5.690696 L 37.363139,32.611853 C 35.936003,31.843397 34.007398,31.458354 32.07889,31.458041 Z"
     id="path2" />
  <path
     style="opacity:0.2;fill:#ffffff;stroke-width:1.11825"
     d="m 32.077481,31.458039 c -1.928509,-3.18e-4 -3.85401,0.384748 -5.281146,1.153202 L 5.1432017,44.269949 C 3.4632558,45.174529 2.802637,46.448542 3.1076238,47.659667 3.31157,46.821011 3.9779172,46.015663 5.1432017,45.388206 L 26.796335,33.729499 c 1.427136,-0.768455 3.352637,-1.153521 5.281146,-1.153202 1.928508,3.12e-4 3.858376,0.384747 5.285513,1.153202 L 59.01176,45.388206 c 1.165521,0.627581 1.831773,1.432859 2.035577,2.271461 0.30467,-1.211176 -0.355292,-2.48496 -2.035577,-3.389718 L 37.362994,32.611241 c -1.427137,-0.768454 -3.357005,-1.152889 -5.285513,-1.153202 z"
     id="path3" />
  <path
     style="opacity:0.2;stroke-width:1.11825"
     d="m 32.078829,16.92069 c -1.928509,-3.14e-4 -3.857116,0.385359 -5.284252,1.153812 L 5.1421675,29.731513 c -2.8542727,1.536908 -2.8516213,4.153793 0.00264,5.690701 L 26.794554,47.07922 c 2.854272,1.536906 7.714236,1.536906 10.568504,0 L 59.012817,35.422214 c 2.854266,-1.536904 2.851577,-4.153799 -0.0027,-5.690701 L 37.363079,18.074503 c -1.427137,-0.768454 -3.355741,-1.153498 -5.28425,-1.153813 z"
     id="path4" />
  <path
     style="fill:#aed351;stroke-width:1.11825"
     d="m 32.078829,15.802435 c -1.928509,-3.16e-4 -3.857116,0.385357 -5.284252,1.153811 L 5.1421675,28.613257 c -2.8542727,1.536908 -2.8516213,4.153791 0.00264,5.6907 L 26.794554,45.960963 c 2.854272,1.536906 7.714236,1.536906 10.568504,0 L 59.012817,34.303957 c 2.854266,-1.536904 2.851577,-4.153799 -0.0027,-5.6907 L 37.363079,16.956246 c -1.427137,-0.768454 -3.355741,-1.153497 -5.28425,-1.153811 z"
     id="path5" />
  <path
     style="opacity:0.2;fill:#ffffff;stroke-width:1.11825"
     d="m 32.077481,15.802435 c -1.928509,-3.14e-4 -3.85401,0.384749 -5.281146,1.153203 L 5.1432017,28.614345 C 3.4632558,29.518926 2.802637,30.792937 3.1076238,32.004063 3.31157,31.165407 3.9779172,30.36006 5.1432017,29.732602 L 26.796335,18.073896 c 1.427136,-0.768455 3.352637,-1.153517 5.281146,-1.153204 1.928508,3.15e-4 3.858376,0.384749 5.285513,1.153204 L 59.01176,29.732602 c 1.165521,0.627582 1.831773,1.432859 2.035577,2.271461 0.30467,-1.211176 -0.355292,-2.484957 -2.035577,-3.389718 L 37.362994,16.955638 c -1.427137,-0.768454 -3.357005,-1.152889 -5.285513,-1.153203 z"
     id="path6" />
  <path
     style="opacity:0.2;stroke-width:1.11825"
     d="M 32.078829,1.2650867 C 30.15032,1.264772 28.221713,1.6504447 26.794577,2.4188984 L 5.1421675,14.075909 c -2.8542727,1.536907 -2.8516213,4.153791 0.00264,5.690698 L 26.794554,31.423618 c 2.854272,1.536904 7.714236,1.536903 10.568504,0 L 59.012814,19.766607 c 2.854266,-1.536903 2.851577,-4.153797 -0.0027,-5.690698 L 37.363079,2.4188984 C 35.935942,1.6504447 34.007338,1.2654014 32.078829,1.2650867 Z"
     id="path7" />
  <path
     style="fill:#3b9dda;stroke-width:1.11825"
     d="M 32.078829,0.1468305 C 30.15032,0.14651584 28.221713,0.53218851 26.794577,1.3006423 L 5.1421675,12.957653 c -2.8542727,1.536906 -2.8516213,4.15379 0.00264,5.690698 l 21.6497495,11.65701 c 2.854272,1.536904 7.714236,1.536902 10.568503,0 l 21.649757,-11.65701 c 2.854266,-1.536903 2.851577,-4.153796 -0.0027,-5.690698 L 37.363079,1.3006423 C 35.935942,0.53218851 34.007338,0.14714525 32.078829,0.1468305 Z"
     id="path8" />
  <path
     style="opacity:0.2;fill:#ffffff;stroke-width:1.11825"
     d="M 32.077481,0.14683078 C 30.148972,0.14651611 28.223471,0.53157999 26.796335,1.3000337 L 5.1432017,12.958741 C 3.4632558,13.863322 2.802637,15.137334 3.1076238,16.348459 3.31157,15.509803 3.9779172,14.704457 5.1432017,14.076999 L 26.796335,2.4182911 c 1.427136,-0.7684537 3.352637,-1.1535176 5.281146,-1.1532029 1.928508,3.146e-4 3.858376,0.3847492 5.285513,1.1532029 L 59.01176,14.076999 c 1.165515,0.627582 1.83177,1.432859 2.035577,2.27146 0.304668,-1.211175 -0.355299,-2.484956 -2.035577,-3.389718 L 37.362994,1.3000337 C 35.935857,0.53157999 34.005989,0.14714544 32.077481,0.14683078 Z"
     id="path9" />
</svg>
